<?xml version="1.0" standalone="no"?>
<!DOCTYPE svg PUBLIC "-//W3C//DTD SVG 20010904//EN"
 "http://www.w3.org/TR/2001/REC-SVG-20010904/DTD/svg10.dtd">
<svg version="1.0" xmlns="http://www.w3.org/2000/svg"
 width="438.000000pt" height="438.000000pt" viewBox="0 0 438.000000 438.000000"
 preserveAspectRatio="xMidYMid meet">
<g transform="translate(0.000000,438.000000) scale(0.100000,-0.100000)"
fill="#fff" stroke="none">
<path d="M1867 3919 c-220 -16 -388 -60 -582 -154 -274 -133 -479 -323 -795
-740 -189 -248 -225 -298 -282 -395 -46 -77 -133 -283 -136 -320 -1 -8 -10
-49 -21 -90 -47 -186 -59 -485 -27 -665 26 -145 89 -325 146 -420 52 -86 170
-212 260 -278 30 -23 57 -44 58 -49 2 -4 9 -8 17 -8 7 0 18 -7 25 -15 14 -17
196 -105 216 -105 8 0 14 -4 14 -10 0 -5 17 -12 38 -16 20 -3 62 -17 92 -29
30 -13 82 -31 115 -40 33 -9 79 -23 103 -31 23 -8 60 -14 82 -14 21 0 50 -4
63 -9 26 -10 192 -28 342 -37 50 -3 117 -9 150 -14 64 -9 572 -5 690 5 90 8
187 39 218 71 39 39 57 101 41 144 -16 44 -17 53 -4 45 5 -3 3 9 -4 27 -8 18
-23 37 -33 43 -10 5 -31 19 -48 31 -16 11 -50 24 -74 28 -38 6 -49 3 -84 -21
-67 -46 -87 -135 -46 -202 l20 -34 -28 6 c-15 4 -84 11 -153 17 -121 10 -214
19 -390 40 -123 14 -352 64 -485 106 -184 58 -414 196 -490 294 -22 28 -48 61
-59 73 -28 34 -71 124 -102 217 -26 75 -29 99 -29 205 0 70 6 141 14 170 22
81 52 168 66 190 7 11 23 45 35 75 27 63 56 100 80 100 9 0 50 11 90 25 91 31
106 31 179 0 90 -37 198 -65 283 -72 119 -9 129 5 23 32 -50 12 -147 50 -218
84 -77 37 -140 61 -160 61 -40 0 -230 -55 -271 -79 -21 -12 -42 -44 -78 -121
-99 -210 -122 -295 -122 -465 0 -92 4 -125 27 -200 15 -49 32 -99 37 -110 63
-144 98 -195 207 -302 49 -48 192 -127 318 -175 22 -9 69 -27 105 -41 70 -27
73 -28 229 -57 58 -11 112 -22 120 -26 9 -3 45 -8 81 -10 36 -2 79 -6 95 -8
76 -12 155 -20 205 -21 30 -1 57 -3 60 -4 7 -3 357 -14 415 -13 59 1 85 25 85
78 0 54 -51 88 -104 68 -22 -8 -21 -54 0 -54 13 0 14 3 4 15 -17 20 -4 35 30
35 36 0 62 -33 53 -69 -9 -42 -33 -61 -73 -61 -105 0 -136 166 -39 212 72 34
172 -16 201 -101 31 -93 -16 -159 -138 -196 -155 -47 -971 -14 -1274 51 -136
30 -274 65 -346 89 -77 25 -285 128 -350 172 -146 100 -264 230 -349 387 -77
141 -131 435 -121 656 3 74 11 164 17 200 6 36 12 78 15 95 7 57 93 292 133
365 55 102 375 535 496 670 22 25 54 63 70 83 44 56 235 224 323 285 270 187
590 272 972 259 243 -9 427 -53 735 -176 82 -33 152 -58 154 -55 7 7 -19 23
-49 30 -14 4 -34 14 -45 24 -11 10 -67 40 -125 68 -242 115 -413 165 -620 182
-128 11 -127 11 -293 -1z"/>
<path d="M2032 3760 c-19 -4 -38 -12 -44 -18 -11 -11 6 -304 23 -382 14 -65
47 -114 81 -118 41 -5 104 16 139 46 63 52 139 260 139 377 0 44 -2 47 -37 62
-81 33 -230 50 -301 33z"/>
<path d="M3260 3721 c0 -9 -96 -71 -109 -71 -5 0 -14 -7 -21 -15 -17 -21 -13
-20 79 20 80 34 81 34 118 17 45 -20 121 -73 144 -99 9 -10 40 -40 69 -68 29
-27 86 -92 127 -142 41 -51 81 -96 88 -100 7 -5 -15 -8 -50 -8 -37 0 -70 -6
-77 -13 -6 -6 -18 -12 -26 -12 -18 0 -67 -54 -91 -100 -20 -38 -30 -178 -11
-150 5 8 10 27 10 41 0 67 47 141 108 172 88 43 202 1 242 -90 28 -64 27 -75
-7 -57 -35 18 -84 18 -107 1 -19 -14 -30 -77 -20 -109 2 -9 23 -25 45 -36 l41
-20 -31 -16 c-48 -25 -98 -20 -153 15 -26 17 -59 45 -73 61 -33 39 -40 32 -24
-24 23 -81 91 -127 187 -128 124 0 209 86 219 224 5 66 3 75 -26 129 -20 38
-26 57 -18 57 27 0 105 -32 120 -48 29 -34 93 -170 130 -278 35 -100 50 -129
113 -214 48 -64 53 -76 40 -86 -9 -6 -16 -13 -16 -15 0 -7 43 -9 69 -3 39 9
23 68 -47 177 -34 52 -72 126 -87 172 -32 95 -87 217 -118 263 -31 46 -100 87
-190 112 -47 13 -90 32 -109 48 -46 41 -168 165 -168 172 0 3 -29 28 -64 55
-36 28 -65 56 -65 63 -1 6 -8 12 -17 12 -8 0 -35 14 -60 31 -55 38 -112 62
-130 55 -8 -3 -14 -1 -14 4 0 6 -4 10 -10 10 -5 0 -10 -4 -10 -9z"/>
<path d="M1569 3671 c-112 -44 -239 -140 -239 -180 0 -21 150 -201 228 -273
60 -55 119 -85 147 -74 7 2 32 29 56 58 l42 53 -6 80 c-9 142 -101 347 -157
352 -14 1 -46 -6 -71 -16z"/>
<path d="M2580 3513 c-100 -155 -143 -248 -148 -315 l-4 -58 48 -21 c74 -33
128 -30 204 9 132 66 270 204 255 253 -12 37 -156 174 -212 203 -29 14 -59 26
-67 26 -8 0 -42 -43 -76 -97z"/>
<path d="M1053 3370 c-91 -52 -193 -169 -179 -205 6 -17 142 -126 220 -177 65
-42 126 -62 157 -53 28 9 59 80 59 135 0 55 -49 163 -110 244 -34 45 -78 86
-92 86 -2 0 -26 -14 -55 -30z"/>
<path d="M687 3003 c-47 -33 -121 -130 -137 -179 -7 -19 -10 -37 -8 -38 12
-12 202 -117 240 -134 64 -28 119 -36 139 -20 20 16 39 70 39 110 0 36 -31 98
-83 167 -41 53 -120 121 -141 121 -6 0 -28 -12 -49 -27z"/>
<path d="M3177 2933 c-14 -13 -7 -70 11 -85 28 -25 130 -74 222 -108 47 -17
103 -39 125 -50 22 -10 74 -31 115 -46 41 -15 82 -33 91 -40 9 -8 18 -12 21
-9 2 3 46 -13 97 -35 51 -22 99 -40 107 -40 7 0 14 -4 14 -10 0 -5 7 -10 15
-10 8 0 23 -4 33 -9 9 -4 41 -20 71 -35 33 -17 51 -22 49 -14 -6 19 -239 135
-513 255 -113 49 -166 76 -161 80 5 6 119 -43 377 -160 306 -140 402 -166 259
-70 -125 84 -445 232 -748 348 -111 42 -170 54 -185 38z"/>
<path d="M2355 2772 c-134 -34 -220 -96 -271 -195 -26 -49 -34 -118 -52 -441
l-7 -129 -39 69 c-52 91 -211 410 -235 472 -39 98 -110 187 -162 202 -81 24
-418 4 -501 -29 -34 -13 -36 -21 -5 -20 12 1 110 -2 217 -6 292 -10 308 -18
389 -201 66 -149 166 -347 209 -414 62 -95 162 -320 162 -363 0 -47 -13 -61
-79 -83 -46 -15 -53 -15 -74 -1 -15 10 -29 34 -37 64 -8 26 -16 50 -19 53 -7
5 -37 61 -86 158 -18 34 -39 70 -49 80 -9 9 -45 58 -81 107 -36 50 -79 97 -95
106 -16 9 -27 19 -24 22 12 11 -119 36 -226 42 l-75 4 80 -15 c112 -22 208
-60 245 -97 30 -30 106 -138 139 -197 44 -80 96 -184 122 -247 17 -40 44 -91
61 -114 30 -41 30 -41 78 -35 66 9 153 49 180 83 19 24 21 36 17 81 -3 29 -3
52 1 50 44 -21 104 -68 113 -90 20 -48 43 -61 99 -56 62 6 93 32 110 94 22 78
3 148 -75 284 -25 43 -26 50 -21 152 3 59 11 147 18 197 l12 91 82 0 c166 0
320 37 333 80 3 12 2 13 -11 2 -20 -16 -142 -19 -313 -9 -101 6 -134 5 -148
-5 -19 -14 -26 -61 -48 -318 -12 -152 -8 -178 41 -255 21 -33 45 -84 54 -114
15 -51 15 -57 -2 -90 -24 -50 -43 -50 -71 -1 -15 27 -46 56 -94 88 -105 69
-120 103 -121 275 -1 73 1 196 4 273 4 116 8 145 23 161 9 11 17 30 17 44 1
50 156 157 235 163 11 0 25 4 31 8 18 12 157 1 203 -16 53 -19 67 -14 19 7
-94 43 -180 52 -273 29z"/>
<path d="M4080 2368 c-14 -5 -56 -18 -95 -28 -38 -11 -107 -31 -153 -44 -178
-54 -476 -86 -531 -57 -11 6 -28 11 -38 11 -10 0 -31 7 -47 15 -35 18 -102 20
-109 2 -5 -12 -87 -39 -135 -44 -13 -1 -49 -7 -80 -14 -31 -6 -72 -13 -92 -15
-19 -1 -74 -7 -122 -11 -58 -6 -90 -5 -93 2 -3 6 -7 7 -10 0 -3 -6 -39 -9 -82
-8 l-78 2 39 -14 c27 -11 89 -16 205 -18 94 -1 170 -6 176 -12 6 -5 17 -21 26
-35 41 -64 120 -144 184 -185 39 -25 75 -45 80 -46 6 -1 24 -2 41 -4 17 -1 55
-13 85 -27 30 -14 65 -29 79 -33 14 -4 62 -32 108 -61 45 -30 85 -54 88 -54 3
0 35 -14 71 -31 74 -34 95 -34 172 4 51 24 70 43 71 69 0 23 -88 187 -120 224
-49 55 -88 76 -163 85 -103 13 -231 64 -271 108 -18 20 -18 20 15 11 128 -37
517 27 688 113 97 48 170 126 91 95z m-877 -217 c37 -66 72 -99 143 -133 61
-28 174 -57 227 -58 31 0 112 -68 123 -103 4 -11 20 -43 37 -70 29 -48 30 -50
12 -63 -10 -8 -26 -14 -34 -14 -23 0 -101 26 -136 44 -16 9 -36 16 -43 16 -8
0 -26 8 -40 19 -15 10 -45 26 -67 36 -22 9 -56 24 -75 33 -19 9 -39 16 -45 17
-5 0 -26 8 -45 16 -19 9 -59 19 -89 22 -54 6 -143 49 -181 87 -11 11 -24 20
-30 20 -5 0 -9 3 -8 8 2 4 -21 31 -50 61 -29 29 -51 55 -49 58 3 2 58 11 123
19 65 9 132 21 148 28 41 17 49 13 79 -43z"/>
</g>
</svg>
